<mxfile host="app.diagrams.net" modified="2023-12-20T11:02:23.478Z" agent="Mozilla/5.0 (Macintosh; Intel Mac OS X 10_15_7) AppleWebKit/537.36 (KHTML, like Gecko) Chrome/120.0.0.0 Safari/537.36" etag="yZaplXIL2vcoZTqS8dbv" version="22.1.11" type="github">
  <diagram name="Page-1" id="tMij5r29sIXgFKOddyDR">
    <mxGraphModel dx="1026" dy="557" grid="1" gridSize="10" guides="1" tooltips="1" connect="1" arrows="1" fold="1" page="1" pageScale="1" pageWidth="827" pageHeight="1169" math="0" shadow="0">
      <root>
        <mxCell id="0" />
        <mxCell id="1" parent="0" />
        <mxCell id="mgBgphUbSOST4GPZ7xLw-9" style="edgeStyle=orthogonalEdgeStyle;rounded=0;orthogonalLoop=1;jettySize=auto;html=1;entryX=0.5;entryY=0;entryDx=0;entryDy=0;" edge="1" parent="1" source="mgBgphUbSOST4GPZ7xLw-3" target="mgBgphUbSOST4GPZ7xLw-6">
          <mxGeometry relative="1" as="geometry" />
        </mxCell>
        <mxCell id="mgBgphUbSOST4GPZ7xLw-15" style="edgeStyle=orthogonalEdgeStyle;rounded=0;orthogonalLoop=1;jettySize=auto;html=1;entryX=0.5;entryY=0;entryDx=0;entryDy=0;" edge="1" parent="1" source="mgBgphUbSOST4GPZ7xLw-3" target="mgBgphUbSOST4GPZ7xLw-13">
          <mxGeometry relative="1" as="geometry" />
        </mxCell>
        <mxCell id="mgBgphUbSOST4GPZ7xLw-3" value="Repository&lt;br&gt;(ToDo)" style="rounded=1;whiteSpace=wrap;html=1;" vertex="1" parent="1">
          <mxGeometry x="320" y="20" width="120" height="60" as="geometry" />
        </mxCell>
        <mxCell id="mgBgphUbSOST4GPZ7xLw-5" value="" style="edgeStyle=orthogonalEdgeStyle;rounded=0;orthogonalLoop=1;jettySize=auto;html=1;" edge="1" parent="1" source="mgBgphUbSOST4GPZ7xLw-4" target="mgBgphUbSOST4GPZ7xLw-3">
          <mxGeometry relative="1" as="geometry" />
        </mxCell>
        <mxCell id="mgBgphUbSOST4GPZ7xLw-27" style="edgeStyle=orthogonalEdgeStyle;rounded=0;orthogonalLoop=1;jettySize=auto;html=1;entryX=1;entryY=0.5;entryDx=0;entryDy=0;" edge="1" parent="1" source="mgBgphUbSOST4GPZ7xLw-4" target="mgBgphUbSOST4GPZ7xLw-16">
          <mxGeometry relative="1" as="geometry" />
        </mxCell>
        <mxCell id="mgBgphUbSOST4GPZ7xLw-28" style="edgeStyle=orthogonalEdgeStyle;rounded=0;orthogonalLoop=1;jettySize=auto;html=1;entryX=0;entryY=0.5;entryDx=0;entryDy=0;" edge="1" parent="1" source="mgBgphUbSOST4GPZ7xLw-4" target="mgBgphUbSOST4GPZ7xLw-10">
          <mxGeometry relative="1" as="geometry" />
        </mxCell>
        <mxCell id="mgBgphUbSOST4GPZ7xLw-4" value="Domain&lt;br&gt;Model&lt;br&gt;(Merged)" style="ellipse;whiteSpace=wrap;html=1;aspect=fixed;fillColor=#f8cecc;strokeColor=#b85450;" vertex="1" parent="1">
          <mxGeometry x="355" y="135" width="50" height="50" as="geometry" />
        </mxCell>
        <mxCell id="mgBgphUbSOST4GPZ7xLw-8" value="" style="edgeStyle=orthogonalEdgeStyle;rounded=0;orthogonalLoop=1;jettySize=auto;html=1;" edge="1" parent="1" source="mgBgphUbSOST4GPZ7xLw-6" target="mgBgphUbSOST4GPZ7xLw-7">
          <mxGeometry relative="1" as="geometry" />
        </mxCell>
        <mxCell id="mgBgphUbSOST4GPZ7xLw-6" value="Remote Source&lt;br&gt;(Merged)" style="rounded=1;whiteSpace=wrap;html=1;fillColor=#f8cecc;strokeColor=#b85450;" vertex="1" parent="1">
          <mxGeometry x="530" y="130" width="120" height="60" as="geometry" />
        </mxCell>
        <mxCell id="mgBgphUbSOST4GPZ7xLw-7" value="Retrofit&lt;br&gt;(Merged)" style="rounded=1;whiteSpace=wrap;html=1;fillColor=#f8cecc;strokeColor=#b85450;" vertex="1" parent="1">
          <mxGeometry x="530" y="220" width="120" height="60" as="geometry" />
        </mxCell>
        <mxCell id="mgBgphUbSOST4GPZ7xLw-23" value="" style="edgeStyle=orthogonalEdgeStyle;rounded=0;orthogonalLoop=1;jettySize=auto;html=1;" edge="1" parent="1" source="mgBgphUbSOST4GPZ7xLw-10" target="mgBgphUbSOST4GPZ7xLw-11">
          <mxGeometry relative="1" as="geometry" />
        </mxCell>
        <mxCell id="mgBgphUbSOST4GPZ7xLw-10" value="Converter&lt;br&gt;(Merged)" style="shape=process;whiteSpace=wrap;html=1;backgroundOutline=1;size=0;fillColor=#f8cecc;strokeColor=#b85450;" vertex="1" parent="1">
          <mxGeometry x="430" y="145" width="70" height="30" as="geometry" />
        </mxCell>
        <mxCell id="mgBgphUbSOST4GPZ7xLw-22" value="" style="edgeStyle=orthogonalEdgeStyle;rounded=0;orthogonalLoop=1;jettySize=auto;html=1;" edge="1" parent="1" source="mgBgphUbSOST4GPZ7xLw-11" target="mgBgphUbSOST4GPZ7xLw-7">
          <mxGeometry relative="1" as="geometry" />
        </mxCell>
        <mxCell id="mgBgphUbSOST4GPZ7xLw-24" style="edgeStyle=orthogonalEdgeStyle;rounded=0;orthogonalLoop=1;jettySize=auto;html=1;entryX=0;entryY=0.5;entryDx=0;entryDy=0;" edge="1" parent="1" source="mgBgphUbSOST4GPZ7xLw-11" target="mgBgphUbSOST4GPZ7xLw-6">
          <mxGeometry relative="1" as="geometry" />
        </mxCell>
        <mxCell id="mgBgphUbSOST4GPZ7xLw-11" value="Remote Model&lt;br&gt;(Merged)" style="ellipse;whiteSpace=wrap;html=1;aspect=fixed;fillColor=#f8cecc;strokeColor=#b85450;" vertex="1" parent="1">
          <mxGeometry x="440" y="225" width="50" height="50" as="geometry" />
        </mxCell>
        <mxCell id="mgBgphUbSOST4GPZ7xLw-12" value="" style="edgeStyle=orthogonalEdgeStyle;rounded=0;orthogonalLoop=1;jettySize=auto;html=1;" edge="1" parent="1" source="mgBgphUbSOST4GPZ7xLw-13" target="mgBgphUbSOST4GPZ7xLw-14">
          <mxGeometry relative="1" as="geometry" />
        </mxCell>
        <mxCell id="mgBgphUbSOST4GPZ7xLw-13" value="LocalSource" style="rounded=1;whiteSpace=wrap;html=1;fillColor=#dae8fc;strokeColor=#6c8ebf;" vertex="1" parent="1">
          <mxGeometry x="110" y="130" width="120" height="60" as="geometry" />
        </mxCell>
        <mxCell id="mgBgphUbSOST4GPZ7xLw-14" value="Room DB" style="rounded=1;whiteSpace=wrap;html=1;fillColor=#ffe6cc;strokeColor=#d79b00;" vertex="1" parent="1">
          <mxGeometry x="110" y="220" width="120" height="60" as="geometry" />
        </mxCell>
        <mxCell id="mgBgphUbSOST4GPZ7xLw-26" style="edgeStyle=orthogonalEdgeStyle;rounded=0;orthogonalLoop=1;jettySize=auto;html=1;entryX=0.5;entryY=0;entryDx=0;entryDy=0;" edge="1" parent="1" source="mgBgphUbSOST4GPZ7xLw-16" target="mgBgphUbSOST4GPZ7xLw-17">
          <mxGeometry relative="1" as="geometry" />
        </mxCell>
        <mxCell id="mgBgphUbSOST4GPZ7xLw-16" value="Converter" style="shape=process;whiteSpace=wrap;html=1;backgroundOutline=1;size=0;fillColor=#d5e8d4;strokeColor=#82b366;" vertex="1" parent="1">
          <mxGeometry x="260" y="145" width="70" height="30" as="geometry" />
        </mxCell>
        <mxCell id="mgBgphUbSOST4GPZ7xLw-20" value="" style="edgeStyle=orthogonalEdgeStyle;rounded=0;orthogonalLoop=1;jettySize=auto;html=1;" edge="1" parent="1" source="mgBgphUbSOST4GPZ7xLw-17" target="mgBgphUbSOST4GPZ7xLw-14">
          <mxGeometry relative="1" as="geometry">
            <Array as="points">
              <mxPoint x="230" y="250" />
            </Array>
          </mxGeometry>
        </mxCell>
        <mxCell id="mgBgphUbSOST4GPZ7xLw-21" style="edgeStyle=orthogonalEdgeStyle;rounded=0;orthogonalLoop=1;jettySize=auto;html=1;entryX=1;entryY=0.5;entryDx=0;entryDy=0;" edge="1" parent="1" source="mgBgphUbSOST4GPZ7xLw-17" target="mgBgphUbSOST4GPZ7xLw-13">
          <mxGeometry relative="1" as="geometry" />
        </mxCell>
        <mxCell id="mgBgphUbSOST4GPZ7xLw-17" value="Local Model" style="ellipse;whiteSpace=wrap;html=1;aspect=fixed;fillColor=#fff2cc;strokeColor=#d6b656;" vertex="1" parent="1">
          <mxGeometry x="270" y="225" width="50" height="50" as="geometry" />
        </mxCell>
      </root>
    </mxGraphModel>
  </diagram>
</mxfile>
